<svg preserveAspectRatio="none" width="100%" height="100%" overflow="visible" style="display: block;" viewBox="0 0 17 16.8412" fill="none" xmlns="http://www.w3.org/2000/svg">
<g id="Icon Mask">
<g id="Navigation Icons">
<g id="Tableau Logo Mark">
<mask id="path-1-outside-1_0_332" maskUnits="userSpaceOnUse" x="-0.5" y="-0.5" width="18" height="18" fill="black">
<rect fill="white" x="-0.5" y="-0.5" width="18" height="18"/>
<path d="M8.50133 0.5C8.3732 0.5 8.26933 0.60387 8.26933 0.732V1.31133C8.26933 1.67437 7.97504 1.96867 7.612 1.96867H7.148C7.04123 1.96867 6.95467 2.05523 6.95467 2.162C6.95467 2.26878 7.04123 2.35533 7.148 2.35533H7.612C7.97504 2.35533 8.26933 2.64963 8.26933 3.01267V3.592C8.26933 3.72013 8.3732 3.824 8.50133 3.824C8.62946 3.824 8.73333 3.72013 8.73333 3.592V3.012C8.73333 2.64933 9.02733 2.35533 9.39 2.35533H9.85333C9.96011 2.35533 10.0467 2.26878 10.0467 2.162C10.0467 2.05523 9.96011 1.96867 9.85333 1.96867H9.39C9.02733 1.96867 8.73333 1.67467 8.73333 1.312V0.732C8.73333 0.60387 8.62946 0.5 8.50133 0.5ZM12.6373 2.008C12.4451 2.008 12.2891 2.16374 12.2889 2.356L12.288 3.09V3.18633C12.288 3.7307 11.8467 4.172 11.3023 4.172H10.6257C10.455 4.172 10.3167 4.31034 10.3167 4.481C10.3167 4.65166 10.455 4.79 10.6257 4.79H11.3023C11.8467 4.79 12.288 5.2313 12.288 5.77567V6.56646C12.288 6.75914 12.4442 6.91533 12.6369 6.91533C12.8286 6.91533 12.9844 6.76061 12.9857 6.56888L12.9907 5.86067L12.9916 5.78392C12.9985 5.24194 13.4387 4.80407 13.9807 4.79667L14.6461 4.79211C14.8165 4.79094 14.954 4.65247 14.954 4.48206C14.954 4.31082 14.8152 4.172 14.6439 4.172H13.9697C13.426 4.172 12.9853 3.7313 12.9853 3.18767V2.356C12.9853 2.16381 12.8295 2.008 12.6373 2.008ZM4.34667 2.048C4.16515 2.048 4.018 2.19515 4.018 2.37667V3.17933C4.018 3.72904 3.57237 4.17467 3.02267 4.17467H2.33567C2.16538 4.17467 2.02733 4.31271 2.02733 4.483C2.02733 4.65329 2.16538 4.79133 2.33567 4.79133H3.02267C3.57237 4.79133 4.018 5.23696 4.018 5.78667V6.58967C4.018 6.771 4.165 6.918 4.34633 6.918C4.52767 6.918 4.67467 6.771 4.67467 6.58967V5.79067C4.67467 5.23838 5.12238 4.79067 5.67467 4.79067H6.375C6.54529 4.79067 6.68333 4.65262 6.68333 4.48233C6.68333 4.31205 6.54529 4.174 6.375 4.174H5.67467C5.12238 4.174 4.67467 3.72628 4.67467 3.174V2.376C4.67467 2.19485 4.52782 2.048 4.34667 2.048ZM8.504 5.56133C8.26725 5.56133 8.07533 5.75325 8.07533 5.99V6.95667C8.07533 7.50895 7.62762 7.95667 7.07533 7.95667H6.26933C6.05063 7.95667 5.87333 8.13396 5.87333 8.35267C5.87333 8.57137 6.05063 8.74867 6.26933 8.74867H7.076C7.62829 8.74867 8.076 9.19638 8.076 9.74867V10.7193C8.076 10.955 8.26703 11.146 8.50267 11.146C8.73831 11.146 8.92933 10.955 8.92933 10.7193V9.74867C8.92933 9.19638 9.37705 8.74867 9.92933 8.74867H10.7393C10.958 8.74867 11.1353 8.57137 11.1353 8.35267C11.1353 8.13396 10.958 7.95667 10.7393 7.95667H9.92867C9.37638 7.95667 8.92867 7.50895 8.92867 6.95667V5.986C8.92867 5.75146 8.73854 5.56133 8.504 5.56133ZM14.866 6.59533C14.6949 6.59497 14.556 6.73357 14.556 6.90467V7.40467C14.556 7.77507 14.2557 8.07533 13.8853 8.07533H13.485C13.3357 8.07533 13.2147 8.19637 13.2147 8.34567C13.2147 8.49497 13.3357 8.616 13.485 8.616H13.8853C14.2557 8.616 14.556 8.91627 14.556 9.28667V9.82767C14.556 9.99096 14.6884 10.1233 14.8517 10.1233C15.015 10.1233 15.1473 9.99096 15.1473 9.82767V9.29233C15.1473 8.9188 15.4501 8.616 15.8237 8.616H16.2297C16.379 8.616 16.5 8.49497 16.5 8.34567C16.5 8.19637 16.379 8.07533 16.2297 8.07533H15.8237C15.4501 8.07533 15.1473 7.77253 15.1473 7.399V6.87667C15.1473 6.72129 15.0214 6.59533 14.866 6.59533ZM2.02733 6.68133C1.91014 6.6817 1.81533 6.77681 1.81533 6.894V7.47367C1.81533 7.83689 1.52089 8.13133 1.15767 8.13133H0.707C0.592677 8.13133 0.5 8.22401 0.5 8.33833C0.5 8.45266 0.592677 8.54533 0.707 8.54533H1.15767C1.52089 8.54533 1.81533 8.83978 1.81533 9.203V9.78567C1.81533 9.90846 1.91488 10.008 2.03767 10.008C2.16046 10.008 2.26 9.90846 2.26 9.78567V9.212C2.26 8.84381 2.55848 8.54533 2.92667 8.54533H3.38667C3.50081 8.54533 3.59333 8.45281 3.59333 8.33867C3.59333 8.22453 3.50081 8.132 3.38667 8.132H2.91633C2.54244 8.132 2.23933 7.8289 2.23933 7.455V6.89333C2.23933 6.77625 2.14442 6.68133 2.02733 6.68133ZM12.6473 9.69267C12.4489 9.69267 12.288 9.85355 12.288 10.052V10.862C12.288 11.4143 11.8403 11.862 11.288 11.862H10.5863C10.4157 11.862 10.2773 12.0003 10.2773 12.171C10.2773 12.3417 10.4157 12.48 10.5863 12.48H11.288C11.8403 12.48 12.288 12.9277 12.288 13.48V14.2673C12.288 14.4647 12.448 14.6247 12.6453 14.6247C12.8427 14.6247 13.0027 14.4647 13.0027 14.2673V13.476C13.0027 12.9263 13.4483 12.4807 13.998 12.4807H14.684C14.8548 12.4807 14.9933 12.3422 14.9933 12.1713C14.9933 12.0005 14.8548 11.862 14.684 11.862H13.998C13.4483 11.862 13.0027 11.4164 13.0027 10.8667V10.048C13.0027 9.85175 12.8436 9.69267 12.6473 9.69267ZM4.34667 9.69733C4.14369 9.6977 3.97933 9.86235 3.97933 10.0653V10.8763C3.97933 11.4207 3.53804 11.862 2.99367 11.862H2.31733C2.14649 11.862 2.008 12.0005 2.008 12.1713C2.008 12.3422 2.14649 12.4807 2.31733 12.4807H2.99367C3.53804 12.4807 3.97933 12.922 3.97933 13.4663V14.2397C3.97933 14.4424 4.14364 14.6067 4.34633 14.6067C4.54902 14.6067 4.71333 14.4424 4.71333 14.2397V13.4657C4.71333 12.9217 5.15433 12.4807 5.69833 12.4807H6.374C6.54484 12.4807 6.68333 12.3422 6.68333 12.1713C6.68333 12.0005 6.54484 11.862 6.374 11.862H5.69833C5.15433 11.862 4.71333 11.421 4.71333 10.877V10.064C4.71333 9.8615 4.54917 9.69733 4.34667 9.69733ZM8.49867 12.75C8.32829 12.75 8.19025 12.8883 8.19056 13.0587L8.19133 13.4853V13.5617C8.19133 13.9245 7.89718 14.2187 7.53433 14.2187H7.148C6.99851 14.2187 6.87733 14.3398 6.87733 14.4893C6.87733 14.6388 6.99851 14.76 7.148 14.76H7.53433C7.89718 14.76 8.19133 15.0541 8.19133 15.417V15.957C8.19133 16.1288 8.33057 16.268 8.50233 16.268C8.67278 16.268 8.81147 16.1308 8.8133 15.9603L8.818 15.522L8.81965 15.4114C8.82502 15.0501 9.11944 14.76 9.48079 14.76H9.87133C10.0208 14.76 10.142 14.6388 10.142 14.4893C10.142 14.3398 10.0208 14.2187 9.87133 14.2187H9.47533C9.10714 14.2187 8.80867 13.9202 8.80867 13.552V13.06C8.80867 12.8888 8.66988 12.75 8.49867 12.75Z"/>
</mask>
<path d="M8.50133 0.5C8.3732 0.5 8.26933 0.60387 8.26933 0.732V1.31133C8.26933 1.67437 7.97504 1.96867 7.612 1.96867H7.148C7.04123 1.96867 6.95467 2.05523 6.95467 2.162C6.95467 2.26878 7.04123 2.35533 7.148 2.35533H7.612C7.97504 2.35533 8.26933 2.64963 8.26933 3.01267V3.592C8.26933 3.72013 8.3732 3.824 8.50133 3.824C8.62946 3.824 8.73333 3.72013 8.73333 3.592V3.012C8.73333 2.64933 9.02733 2.35533 9.39 2.35533H9.85333C9.96011 2.35533 10.0467 2.26878 10.0467 2.162C10.0467 2.05523 9.96011 1.96867 9.85333 1.96867H9.39C9.02733 1.96867 8.73333 1.67467 8.73333 1.312V0.732C8.73333 0.60387 8.62946 0.5 8.50133 0.5ZM12.6373 2.008C12.4451 2.008 12.2891 2.16374 12.2889 2.356L12.288 3.09V3.18633C12.288 3.7307 11.8467 4.172 11.3023 4.172H10.6257C10.455 4.172 10.3167 4.31034 10.3167 4.481C10.3167 4.65166 10.455 4.79 10.6257 4.79H11.3023C11.8467 4.79 12.288 5.2313 12.288 5.77567V6.56646C12.288 6.75914 12.4442 6.91533 12.6369 6.91533C12.8286 6.91533 12.9844 6.76061 12.9857 6.56888L12.9907 5.86067L12.9916 5.78392C12.9985 5.24194 13.4387 4.80407 13.9807 4.79667L14.6461 4.79211C14.8165 4.79094 14.954 4.65247 14.954 4.48206C14.954 4.31082 14.8152 4.172 14.6439 4.172H13.9697C13.426 4.172 12.9853 3.7313 12.9853 3.18767V2.356C12.9853 2.16381 12.8295 2.008 12.6373 2.008ZM4.34667 2.048C4.16515 2.048 4.018 2.19515 4.018 2.37667V3.17933C4.018 3.72904 3.57237 4.17467 3.02267 4.17467H2.33567C2.16538 4.17467 2.02733 4.31271 2.02733 4.483C2.02733 4.65329 2.16538 4.79133 2.33567 4.79133H3.02267C3.57237 4.79133 4.018 5.23696 4.018 5.78667V6.58967C4.018 6.771 4.165 6.918 4.34633 6.918C4.52767 6.918 4.67467 6.771 4.67467 6.58967V5.79067C4.67467 5.23838 5.12238 4.79067 5.67467 4.79067H6.375C6.54529 4.79067 6.68333 4.65262 6.68333 4.48233C6.68333 4.31205 6.54529 4.174 6.375 4.174H5.67467C5.12238 4.174 4.67467 3.72628 4.67467 3.174V2.376C4.67467 2.19485 4.52782 2.048 4.34667 2.048ZM8.504 5.56133C8.26725 5.56133 8.07533 5.75325 8.07533 5.99V6.95667C8.07533 7.50895 7.62762 7.95667 7.07533 7.95667H6.26933C6.05063 7.95667 5.87333 8.13396 5.87333 8.35267C5.87333 8.57137 6.05063 8.74867 6.26933 8.74867H7.076C7.62829 8.74867 8.076 9.19638 8.076 9.74867V10.7193C8.076 10.955 8.26703 11.146 8.50267 11.146C8.73831 11.146 8.92933 10.955 8.92933 10.7193V9.74867C8.92933 9.19638 9.37705 8.74867 9.92933 8.74867H10.7393C10.958 8.74867 11.1353 8.57137 11.1353 8.35267C11.1353 8.13396 10.958 7.95667 10.7393 7.95667H9.92867C9.37638 7.95667 8.92867 7.50895 8.92867 6.95667V5.986C8.92867 5.75146 8.73854 5.56133 8.504 5.56133ZM14.866 6.59533C14.6949 6.59497 14.556 6.73357 14.556 6.90467V7.40467C14.556 7.77507 14.2557 8.07533 13.8853 8.07533H13.485C13.3357 8.07533 13.2147 8.19637 13.2147 8.34567C13.2147 8.49497 13.3357 8.616 13.485 8.616H13.8853C14.2557 8.616 14.556 8.91627 14.556 9.28667V9.82767C14.556 9.99096 14.6884 10.1233 14.8517 10.1233C15.015 10.1233 15.1473 9.99096 15.1473 9.82767V9.29233C15.1473 8.9188 15.4501 8.616 15.8237 8.616H16.2297C16.379 8.616 16.5 8.49497 16.5 8.34567C16.5 8.19637 16.379 8.07533 16.2297 8.07533H15.8237C15.4501 8.07533 15.1473 7.77253 15.1473 7.399V6.87667C15.1473 6.72129 15.0214 6.59533 14.866 6.59533ZM2.02733 6.68133C1.91014 6.6817 1.81533 6.77681 1.81533 6.894V7.47367C1.81533 7.83689 1.52089 8.13133 1.15767 8.13133H0.707C0.592677 8.13133 0.5 8.22401 0.5 8.33833C0.5 8.45266 0.592677 8.54533 0.707 8.54533H1.15767C1.52089 8.54533 1.81533 8.83978 1.81533 9.203V9.78567C1.81533 9.90846 1.91488 10.008 2.03767 10.008C2.16046 10.008 2.26 9.90846 2.26 9.78567V9.212C2.26 8.84381 2.55848 8.54533 2.92667 8.54533H3.38667C3.50081 8.54533 3.59333 8.45281 3.59333 8.33867C3.59333 8.22453 3.50081 8.132 3.38667 8.132H2.91633C2.54244 8.132 2.23933 7.8289 2.23933 7.455V6.89333C2.23933 6.77625 2.14442 6.68133 2.02733 6.68133ZM12.6473 9.69267C12.4489 9.69267 12.288 9.85355 12.288 10.052V10.862C12.288 11.4143 11.8403 11.862 11.288 11.862H10.5863C10.4157 11.862 10.2773 12.0003 10.2773 12.171C10.2773 12.3417 10.4157 12.48 10.5863 12.48H11.288C11.8403 12.48 12.288 12.9277 12.288 13.48V14.2673C12.288 14.4647 12.448 14.6247 12.6453 14.6247C12.8427 14.6247 13.0027 14.4647 13.0027 14.2673V13.476C13.0027 12.9263 13.4483 12.4807 13.998 12.4807H14.684C14.8548 12.4807 14.9933 12.3422 14.9933 12.1713C14.9933 12.0005 14.8548 11.862 14.684 11.862H13.998C13.4483 11.862 13.0027 11.4164 13.0027 10.8667V10.048C13.0027 9.85175 12.8436 9.69267 12.6473 9.69267ZM4.34667 9.69733C4.14369 9.6977 3.97933 9.86235 3.97933 10.0653V10.8763C3.97933 11.4207 3.53804 11.862 2.99367 11.862H2.31733C2.14649 11.862 2.008 12.0005 2.008 12.1713C2.008 12.3422 2.14649 12.4807 2.31733 12.4807H2.99367C3.53804 12.4807 3.97933 12.922 3.97933 13.4663V14.2397C3.97933 14.4424 4.14364 14.6067 4.34633 14.6067C4.54902 14.6067 4.71333 14.4424 4.71333 14.2397V13.4657C4.71333 12.9217 5.15433 12.4807 5.69833 12.4807H6.374C6.54484 12.4807 6.68333 12.3422 6.68333 12.1713C6.68333 12.0005 6.54484 11.862 6.374 11.862H5.69833C5.15433 11.862 4.71333 11.421 4.71333 10.877V10.064C4.71333 9.8615 4.54917 9.69733 4.34667 9.69733ZM8.49867 12.75C8.32829 12.75 8.19025 12.8883 8.19056 13.0587L8.19133 13.4853V13.5617C8.19133 13.9245 7.89718 14.2187 7.53433 14.2187H7.148C6.99851 14.2187 6.87733 14.3398 6.87733 14.4893C6.87733 14.6388 6.99851 14.76 7.148 14.76H7.53433C7.89718 14.76 8.19133 15.0541 8.19133 15.417V15.957C8.19133 16.1288 8.33057 16.268 8.50233 16.268C8.67278 16.268 8.81147 16.1308 8.8133 15.9603L8.818 15.522L8.81965 15.4114C8.82502 15.0501 9.11944 14.76 9.48079 14.76H9.87133C10.0208 14.76 10.142 14.6388 10.142 14.4893C10.142 14.3398 10.0208 14.2187 9.87133 14.2187H9.47533C9.10714 14.2187 8.80867 13.9202 8.80867 13.552V13.06C8.80867 12.8888 8.66988 12.75 8.49867 12.75Z" fill="var(--fill-0, #7A7A7A)"/>
<path d="M8.50133 0.5C8.3732 0.5 8.26933 0.60387 8.26933 0.732V1.31133C8.26933 1.67437 7.97504 1.96867 7.612 1.96867H7.148C7.04123 1.96867 6.95467 2.05523 6.95467 2.162C6.95467 2.26878 7.04123 2.35533 7.148 2.35533H7.612C7.97504 2.35533 8.26933 2.64963 8.26933 3.01267V3.592C8.26933 3.72013 8.3732 3.824 8.50133 3.824C8.62946 3.824 8.73333 3.72013 8.73333 3.592V3.012C8.73333 2.64933 9.02733 2.35533 9.39 2.35533H9.85333C9.96011 2.35533 10.0467 2.26878 10.0467 2.162C10.0467 2.05523 9.96011 1.96867 9.85333 1.96867H9.39C9.02733 1.96867 8.73333 1.67467 8.73333 1.312V0.732C8.73333 0.60387 8.62946 0.5 8.50133 0.5ZM12.6373 2.008C12.4451 2.008 12.2891 2.16374 12.2889 2.356L12.288 3.09V3.18633C12.288 3.7307 11.8467 4.172 11.3023 4.172H10.6257C10.455 4.172 10.3167 4.31034 10.3167 4.481C10.3167 4.65166 10.455 4.79 10.6257 4.79H11.3023C11.8467 4.79 12.288 5.2313 12.288 5.77567V6.56646C12.288 6.75914 12.4442 6.91533 12.6369 6.91533C12.8286 6.91533 12.9844 6.76061 12.9857 6.56888L12.9907 5.86067L12.9916 5.78392C12.9985 5.24194 13.4387 4.80407 13.9807 4.79667L14.6461 4.79211C14.8165 4.79094 14.954 4.65247 14.954 4.48206C14.954 4.31082 14.8152 4.172 14.6439 4.172H13.9697C13.426 4.172 12.9853 3.7313 12.9853 3.18767V2.356C12.9853 2.16381 12.8295 2.008 12.6373 2.008ZM4.34667 2.048C4.16515 2.048 4.018 2.19515 4.018 2.37667V3.17933C4.018 3.72904 3.57237 4.17467 3.02267 4.17467H2.33567C2.16538 4.17467 2.02733 4.31271 2.02733 4.483C2.02733 4.65329 2.16538 4.79133 2.33567 4.79133H3.02267C3.57237 4.79133 4.018 5.23696 4.018 5.78667V6.58967C4.018 6.771 4.165 6.918 4.34633 6.918C4.52767 6.918 4.67467 6.771 4.67467 6.58967V5.79067C4.67467 5.23838 5.12238 4.79067 5.67467 4.79067H6.375C6.54529 4.79067 6.68333 4.65262 6.68333 4.48233C6.68333 4.31205 6.54529 4.174 6.375 4.174H5.67467C5.12238 4.174 4.67467 3.72628 4.67467 3.174V2.376C4.67467 2.19485 4.52782 2.048 4.34667 2.048ZM8.504 5.56133C8.26725 5.56133 8.07533 5.75325 8.07533 5.99V6.95667C8.07533 7.50895 7.62762 7.95667 7.07533 7.95667H6.26933C6.05063 7.95667 5.87333 8.13396 5.87333 8.35267C5.87333 8.57137 6.05063 8.74867 6.26933 8.74867H7.076C7.62829 8.74867 8.076 9.19638 8.076 9.74867V10.7193C8.076 10.955 8.26703 11.146 8.50267 11.146C8.73831 11.146 8.92933 10.955 8.92933 10.7193V9.74867C8.92933 9.19638 9.37705 8.74867 9.92933 8.74867H10.7393C10.958 8.74867 11.1353 8.57137 11.1353 8.35267C11.1353 8.13396 10.958 7.95667 10.7393 7.95667H9.92867C9.37638 7.95667 8.92867 7.50895 8.92867 6.95667V5.986C8.92867 5.75146 8.73854 5.56133 8.504 5.56133ZM14.866 6.59533C14.6949 6.59497 14.556 6.73357 14.556 6.90467V7.40467C14.556 7.77507 14.2557 8.07533 13.8853 8.07533H13.485C13.3357 8.07533 13.2147 8.19637 13.2147 8.34567C13.2147 8.49497 13.3357 8.616 13.485 8.616H13.8853C14.2557 8.616 14.556 8.91627 14.556 9.28667V9.82767C14.556 9.99096 14.6884 10.1233 14.8517 10.1233C15.015 10.1233 15.1473 9.99096 15.1473 9.82767V9.29233C15.1473 8.9188 15.4501 8.616 15.8237 8.616H16.2297C16.379 8.616 16.5 8.49497 16.5 8.34567C16.5 8.19637 16.379 8.07533 16.2297 8.07533H15.8237C15.4501 8.07533 15.1473 7.77253 15.1473 7.399V6.87667C15.1473 6.72129 15.0214 6.59533 14.866 6.59533ZM2.02733 6.68133C1.91014 6.6817 1.81533 6.77681 1.81533 6.894V7.47367C1.81533 7.83689 1.52089 8.13133 1.15767 8.13133H0.707C0.592677 8.13133 0.5 8.22401 0.5 8.33833C0.5 8.45266 0.592677 8.54533 0.707 8.54533H1.15767C1.52089 8.54533 1.81533 8.83978 1.81533 9.203V9.78567C1.81533 9.90846 1.91488 10.008 2.03767 10.008C2.16046 10.008 2.26 9.90846 2.26 9.78567V9.212C2.26 8.84381 2.55848 8.54533 2.92667 8.54533H3.38667C3.50081 8.54533 3.59333 8.45281 3.59333 8.33867C3.59333 8.22453 3.50081 8.132 3.38667 8.132H2.91633C2.54244 8.132 2.23933 7.8289 2.23933 7.455V6.89333C2.23933 6.77625 2.14442 6.68133 2.02733 6.68133ZM12.6473 9.69267C12.4489 9.69267 12.288 9.85355 12.288 10.052V10.862C12.288 11.4143 11.8403 11.862 11.288 11.862H10.5863C10.4157 11.862 10.2773 12.0003 10.2773 12.171C10.2773 12.3417 10.4157 12.48 10.5863 12.48H11.288C11.8403 12.48 12.288 12.9277 12.288 13.48V14.2673C12.288 14.4647 12.448 14.6247 12.6453 14.6247C12.8427 14.6247 13.0027 14.4647 13.0027 14.2673V13.476C13.0027 12.9263 13.4483 12.4807 13.998 12.4807H14.684C14.8548 12.4807 14.9933 12.3422 14.9933 12.1713C14.9933 12.0005 14.8548 11.862 14.684 11.862H13.998C13.4483 11.862 13.0027 11.4164 13.0027 10.8667V10.048C13.0027 9.85175 12.8436 9.69267 12.6473 9.69267ZM4.34667 9.69733C4.14369 9.6977 3.97933 9.86235 3.97933 10.0653V10.8763C3.97933 11.4207 3.53804 11.862 2.99367 11.862H2.31733C2.14649 11.862 2.008 12.0005 2.008 12.1713C2.008 12.3422 2.14649 12.4807 2.31733 12.4807H2.99367C3.53804 12.4807 3.97933 12.922 3.97933 13.4663V14.2397C3.97933 14.4424 4.14364 14.6067 4.34633 14.6067C4.54902 14.6067 4.71333 14.4424 4.71333 14.2397V13.4657C4.71333 12.9217 5.15433 12.4807 5.69833 12.4807H6.374C6.54484 12.4807 6.68333 12.3422 6.68333 12.1713C6.68333 12.0005 6.54484 11.862 6.374 11.862H5.69833C5.15433 11.862 4.71333 11.421 4.71333 10.877V10.064C4.71333 9.8615 4.54917 9.69733 4.34667 9.69733ZM8.49867 12.75C8.32829 12.75 8.19025 12.8883 8.19056 13.0587L8.19133 13.4853V13.5617C8.19133 13.9245 7.89718 14.2187 7.53433 14.2187H7.148C6.99851 14.2187 6.87733 14.3398 6.87733 14.4893C6.87733 14.6388 6.99851 14.76 7.148 14.76H7.53433C7.89718 14.76 8.19133 15.0541 8.19133 15.417V15.957C8.19133 16.1288 8.33057 16.268 8.50233 16.268C8.67278 16.268 8.81147 16.1308 8.8133 15.9603L8.818 15.522L8.81965 15.4114C8.82502 15.0501 9.11944 14.76 9.48079 14.76H9.87133C10.0208 14.76 10.142 14.6388 10.142 14.4893C10.142 14.3398 10.0208 14.2187 9.87133 14.2187H9.47533C9.10714 14.2187 8.80867 13.9202 8.80867 13.552V13.06C8.80867 12.8888 8.66988 12.75 8.49867 12.75Z" stroke="var(--stroke-0, #7A7A7A)" mask="url(#path-1-outside-1_0_332)"/>
</g>
</g>
</g>
</svg>
